<svg id="dashboard" xmlns="http://www.w3.org/2000/svg" viewBox="0 0 23.374 23.374">
  <g id="Group_22" data-name="Group 22">
    <g id="Group_21" data-name="Group 21">
      <path id="Path_15" data-name="Path 15" d="M10.318,352H.913a.913.913,0,0,0-.913.913v5.478a.913.913,0,0,0,.913.913h9.4a.913.913,0,0,0,.913-.913v-5.478A.913.913,0,0,0,10.318,352ZM9.4,357.478H1.826v-3.652H9.4Z" transform="translate(0 -335.93)" fill="#e3ddeb"/>
      <path id="Path_16" data-name="Path 16" d="M10.318,0H.913A.913.913,0,0,0,0,.913V14.244a.913.913,0,0,0,.913.913h9.4a.913.913,0,0,0,.913-.913V.913A.913.913,0,0,0,10.318,0ZM9.4,13.331H1.826V1.826H9.4Z" fill="#e3ddeb"/>
      <path id="Path_17" data-name="Path 17" d="M276.318,0h-9.4A.913.913,0,0,0,266,.913V6.391a.913.913,0,0,0,.913.913h9.4a.913.913,0,0,0,.913-.913V.913A.913.913,0,0,0,276.318,0ZM275.4,5.478h-7.578V1.826H275.4Z" transform="translate(-253.856)" fill="#e3ddeb"/>
      <path id="Path_18" data-name="Path 18" d="M276.318,180h-9.4a.913.913,0,0,0-.913.913v13.331a.913.913,0,0,0,.913.913h9.4a.913.913,0,0,0,.913-.913V180.913A.913.913,0,0,0,276.318,180Zm-.913,13.331h-7.578v-11.5H275.4Z" transform="translate(-253.856 -171.782)" fill="#e3ddeb"/>
    </g>
  </g>
</svg>
