<svg id="message" xmlns="http://www.w3.org/2000/svg" viewBox="0 0 22.688 18.682">
  <path id="Path_3" data-name="Path 3" d="M18.035.5H4.653A4.658,4.658,0,0,0,0,5.153v7.186a4.578,4.578,0,0,0,3.292,4.4l2.247,2.247a.665.665,0,0,0,.94,0L8.54,16.926h9.495a4.658,4.658,0,0,0,4.653-4.653V5.153A4.658,4.658,0,0,0,18.035.5Zm3.323,11.773A3.327,3.327,0,0,1,18.035,15.6H8.265a.665.665,0,0,0-.47.195L6.009,17.577l-1.9-1.9A.664.664,0,0,0,3.8,15.5a3.251,3.251,0,0,1-2.468-3.161V5.153A3.327,3.327,0,0,1,4.653,1.829H18.035a3.327,3.327,0,0,1,3.323,3.323Zm0,0" transform="translate(0 -0.5)" fill="#a3a5b0" />
  <path id="Path_4" data-name="Path 4" d="M154.864,144.328h-8.441a.665.665,0,0,0,0,1.329h8.441a.665.665,0,0,0,0-1.329Zm0,0" transform="translate(-139.299 -137.955)" fill="#a3a5b0" />
  <path id="Path_5" data-name="Path 5" d="M154.864,197.352h-8.441a.665.665,0,1,0,0,1.329h8.441a.665.665,0,0,0,0-1.329Zm0,0" transform="translate(-139.299 -188.629)" fill="#a3a5b0" />
</svg>
